<svg width="33" height="33" viewBox="0 0 33 33" fill="none" xmlns="http://www.w3.org/2000/svg">
<g filter="url(#filter0_d_2_110)">
<path d="M10.9373 23.4923L9.41884 25L4 19.7577L7.88234 15.9311C8.66858 15.1505 9.66071 14.6059 10.7447 14.3599C11.8287 14.114 12.9606 14.1767 14.0103 14.5408L14.8634 14.8367H20.0972C20.3186 14.8366 20.5377 14.8807 20.7415 14.9663C20.9454 15.0519 21.1299 15.1773 21.284 15.3351C21.4381 15.4928 21.5587 15.6797 21.6386 15.8847C21.7186 16.0896 21.7562 16.3084 21.7493 16.5281C21.7242 16.9623 21.5311 17.37 21.2103 17.6662C20.8895 17.9623 20.4658 18.124 20.0278 18.1173H16.888C16.7177 18.1173 16.5543 18.1845 16.4338 18.3041C16.3134 18.4237 16.2457 18.586 16.2457 18.7551C16.2457 18.9242 16.3134 19.0865 16.4338 19.2061C16.5543 19.3257 16.7177 19.3929 16.888 19.3929H20.0381C20.8065 19.3966 21.5469 19.1068 22.106 18.5835C22.6652 18.0602 23.0002 17.3434 23.0417 16.5816C23.0417 16.5689 23.0417 16.5561 23.0417 16.5408L25.9554 13.2832C26.2514 12.9422 26.6683 12.7275 27.1195 12.6838C27.5707 12.6401 28.0216 12.7707 28.3783 13.0485C28.5549 13.1936 28.7003 13.3724 28.8062 13.5743C28.912 13.7762 28.976 13.997 28.9944 14.2239C29.0129 14.4507 28.9854 14.6789 28.9135 14.895C28.8417 15.1111 28.727 15.3108 28.5762 15.4821L22.7591 22.1148C22.3751 22.5517 21.9012 22.9017 21.3693 23.1411C20.8373 23.3805 20.2599 23.5038 19.6758 23.5026L10.9373 23.4923ZM22.9492 9.07143C22.9492 8.75006 22.8206 8.44185 22.5918 8.2146C22.3629 7.98736 22.0525 7.85969 21.7288 7.85969H19.9302V6.07398C19.9158 5.76256 19.7811 5.46863 19.554 5.25331C19.3269 5.03798 19.025 4.91783 18.711 4.91783C18.397 4.91783 18.0951 5.03798 17.8681 5.25331C17.641 5.46863 17.5063 5.76256 17.4918 6.07398V7.85969H15.6933C15.5285 7.85218 15.3638 7.87792 15.2093 7.93536C15.0548 7.99281 14.9136 8.08075 14.7943 8.1939C14.675 8.30704 14.5801 8.44302 14.5152 8.59363C14.4503 8.74424 14.4168 8.90635 14.4168 9.07015C14.4168 9.23396 14.4503 9.39607 14.5152 9.54668C14.5801 9.69728 14.675 9.83327 14.7943 9.94641C14.9136 10.0596 15.0548 10.1475 15.2093 10.2049C15.3638 10.2624 15.5285 10.2881 15.6933 10.2806H17.4918V12.0663C17.5063 12.3777 17.641 12.6717 17.8681 12.887C18.0951 13.1023 18.397 13.2225 18.711 13.2225C19.025 13.2225 19.3269 13.1023 19.554 12.887C19.7811 12.6717 19.9158 12.3777 19.9302 12.0663V10.2806H21.7288C22.052 10.2806 22.362 10.1533 22.5909 9.92661C22.8197 9.69991 22.9485 9.39236 22.9492 9.07143ZM11.2482 2.35714V3.67347H9.925C9.6865 3.67347 9.45776 3.76754 9.28911 3.93498C9.12047 4.10242 9.02572 4.32953 9.02572 4.56633C9.02572 4.80313 9.12047 5.03023 9.28911 5.19767C9.45776 5.36512 9.6865 5.45918 9.925 5.45918H11.2508V6.77551C11.2508 7.01231 11.3456 7.23941 11.5142 7.40686C11.6829 7.5743 11.9116 7.66837 12.1501 7.66837C12.3886 7.66837 12.6173 7.5743 12.786 7.40686C12.9546 7.23941 13.0494 7.01231 13.0494 6.77551V5.45408H14.3675C14.606 5.45408 14.8347 5.36001 15.0034 5.19257C15.172 5.02513 15.2668 4.79802 15.2668 4.56122C15.2668 4.32442 15.172 4.09732 15.0034 3.92988C14.8347 3.76244 14.606 3.66837 14.3675 3.66837H13.0417V2.35714C13.0417 2.12034 12.9469 1.89324 12.7783 1.7258C12.6096 1.55835 12.3809 1.46429 12.1424 1.46429C11.9039 1.46429 11.6751 1.55835 11.5065 1.7258C11.3378 1.89324 11.2431 2.12034 11.2431 2.35714H11.2482ZM22.5921 0C22.3876 0 22.1916 0.0806302 22.047 0.224153C21.9025 0.367676 21.8213 0.562334 21.8213 0.765306V1.89796H20.6805C20.476 1.89796 20.28 1.97859 20.1354 2.12211C19.9909 2.26564 19.9096 2.46029 19.9096 2.66327C19.9096 2.86624 19.9909 3.0609 20.1354 3.20442C20.28 3.34794 20.476 3.42857 20.6805 3.42857H21.8213V4.56122C21.8213 4.7642 21.9025 4.95885 22.047 5.10238C22.1916 5.2459 22.3876 5.32653 22.5921 5.32653C22.7965 5.32653 22.9926 5.2459 23.1371 5.10238C23.2817 4.95885 23.3629 4.7642 23.3629 4.56122V3.42857H24.5037C24.6049 3.42857 24.7052 3.40878 24.7987 3.37032C24.8922 3.33186 24.9772 3.27548 25.0488 3.20442C25.1203 3.13335 25.1771 3.04899 25.2158 2.95614C25.2546 2.86328 25.2745 2.76377 25.2745 2.66327C25.2745 2.56276 25.2546 2.46325 25.2158 2.3704C25.1771 2.27754 25.1203 2.19318 25.0488 2.12211C24.9772 2.05105 24.8922 1.99467 24.7987 1.95621C24.7052 1.91775 24.6049 1.89796 24.5037 1.89796H23.3629V0.765306C23.3629 0.562334 23.2817 0.367676 23.1371 0.224153C22.9926 0.0806302 22.7965 0 22.5921 0Z" fill="white"/>
</g>
<defs>
<filter id="filter0_d_2_110" x="0" y="0" width="33" height="33" filterUnits="userSpaceOnUse" color-interpolation-filters="sRGB">
<feFlood flood-opacity="0" result="BackgroundImageFix"/>
<feColorMatrix in="SourceAlpha" type="matrix" values="0 0 0 0 0 0 0 0 0 0 0 0 0 0 0 0 0 0 127 0" result="hardAlpha"/>
<feOffset dy="4"/>
<feGaussianBlur stdDeviation="2"/>
<feComposite in2="hardAlpha" operator="out"/>
<feColorMatrix type="matrix" values="0 0 0 0 0 0 0 0 0 0 0 0 0 0 0 0 0 0 0.25 0"/>
<feBlend mode="normal" in2="BackgroundImageFix" result="effect1_dropShadow_2_110"/>
<feBlend mode="normal" in="SourceGraphic" in2="effect1_dropShadow_2_110" result="shape"/>
</filter>
</defs>
</svg>
